#N canvas 579 39 1341 984 12;
#X obj 237 369 output~;
#X obj 134 14 loadbang;
#X msg 134 37 330;
#X obj 349 85 * 2.324;
#X obj 138 152 osc~;
#X obj 217 154 osc~;
#X obj 337 153 osc~;
#X obj 214 223 *~ 0.7;
#X obj 335 222 *~ 0.5;
#X obj 233 322 *~ 0.2;
#X obj 212 84 * 1.66;
#X connect 1 0 2 0;
#X connect 2 0 4 0;
#X connect 2 0 3 0;
#X connect 2 0 10 0;
#X connect 3 0 6 0;
#X connect 4 0 9 0;
#X connect 5 0 7 0;
#X connect 6 0 8 0;
#X connect 7 0 9 0;
#X connect 8 0 9 0;
#X connect 9 0 0 0;
#X connect 10 0 5 0;
